<?xml version="1.0" encoding="UTF-8"?>
<svg id="Layer_2" data-name="Layer 2" xmlns="http://www.w3.org/2000/svg" viewBox="0 0 31 31">
  <defs>
    <style>
      .cls-1 {
        fill: #dff8eb;
      }
    </style>
  </defs>
  <g id="Layer_1-2" data-name="Layer 1">
    <rect class="cls-1" x="13" y="0" width="5" height="14" rx="2.5" ry="2.5"/>
    <rect class="cls-1" x="13" y="17" width="5" height="14" rx="2.5" ry="2.5"/>
    <rect class="cls-1" x="21.5" y="8.5" width="5" height="14" rx="2.5" ry="2.5" transform="translate(39.5 -8.5) rotate(90)"/>
    <rect class="cls-1" x="4.5" y="8.5" width="5" height="14" rx="2.5" ry="2.5" transform="translate(22.5 8.5) rotate(90)"/>
    <rect class="cls-1" x="19.01" y="2.49" width="5" height="14" rx="2.5" ry="2.5" transform="translate(13.01 -12.43) rotate(45)"/>
    <rect class="cls-1" x="6.99" y="14.51" width="5" height="14" rx="2.5" ry="2.5" transform="translate(17.99 -.41) rotate(45)"/>
    <rect class="cls-1" x="19.01" y="14.51" width="5" height="14" rx="2.5" ry="2.5" transform="translate(51.93 21.51) rotate(135)"/>
    <rect class="cls-1" x="6.99" y="2.49" width="5" height="14" rx="2.5" ry="2.5" transform="translate(22.91 9.49) rotate(135)"/>
  </g>
</svg>